HIERARCHY
ROOT center
{
	OFFSET 0.0 0.0 0.0
	CHANNELS 6 Xposition Yposition Zposition Zrotation Yrotation Xrotation
	JOINT left_hip
	{
		OFFSET 0.0 0.0 0.0
		CHANNELS 3 Zrotation Yrotation Xrotation
		JOINT left_knee
		{
			OFFSET 6.200740 -8.542875 -1.777666
			CHANNELS 3 Zrotation Yrotation Xrotation
			JOINT left_ankle
			{
				OFFSET 4.613243 -40.507163 0.769901
				CHANNELS 3 Zrotation Yrotation Xrotation
				JOINT left_feet
				{
					OFFSET -2.085879 -44.467047 -4.218270
					CHANNELS 3 Zrotation Yrotation Xrotation
					End Site
					{
						OFFSET 4.610293 -6.193332 12.231667
					}
				}
			}
		}
	}
	JOINT right_hip
	{
		OFFSET 0.0 0.0 0.0
		CHANNELS 3 Zrotation Yrotation Xrotation
		JOINT right_knee
		{
			OFFSET -6.371558 -9.366292 -1.433300
			CHANNELS 3 Zrotation Yrotation Xrotation
			JOINT right_ankle
			{
				OFFSET -4.731283 -40.381934 -0.497834
				CHANNELS 3 Zrotation Yrotation Xrotation
				JOINT right_feet
				{
					OFFSET 2.501016 -43.806312 -3.862191
					CHANNELS 3 Zrotation Yrotation Xrotation
					End Site
					{
						OFFSET -4.281420 -6.775345 13.029640
					}
				}
			}
		}
	}
	JOINT spine1
	{
		OFFSET 0.0 0.0 0.0
		CHANNELS 3 Zrotation Yrotation Xrotation
		JOINT spine2
		{
			OFFSET 0.482130 13.042953 -4.896684
			CHANNELS 3 Zrotation Yrotation Xrotation
			JOINT neck
			{
				OFFSET 0.489323 13.961032 4.099137
				CHANNELS 3 Zrotation Yrotation Xrotation
				JOINT head1
				{
					OFFSET -0.299576 5.748688 0.621923
					CHANNELS 3 Zrotation Yrotation Xrotation
					JOINT head2
					{
						OFFSET -1.357587 21.053258 -3.261892
						CHANNELS 3 Zrotation Yrotation Xrotation
						End Site
						{
							OFFSET 1.017402 8.551723 5.173670
						}
					}
				}
				JOINT left_armpit
				{
					OFFSET -0.299576 5.748688 0.621923
					CHANNELS 3 Zrotation Yrotation Xrotation
					JOINT left_shoulder
					{
						OFFSET 7.533634 11.750111 -1.219851
						CHANNELS 3 Zrotation Yrotation Xrotation
						JOINT left_elbow
						{
							OFFSET 12.099108 4.255844 -3.075159
							CHANNELS 3 Zrotation Yrotation Xrotation
							JOINT left_wrist
							{
								OFFSET 26.500344 -1.774743 -2.204436
								CHANNELS 3 Zrotation Yrotation Xrotation
								JOINT left_hand
								{
									OFFSET 0.000000 0.000000 0.000000
									CHANNELS 3 Zrotation Yrotation Xrotation
									JOINT left_thumb1
									{
										OFFSET 26.962896 1.406068 -0.671098
										CHANNELS 3 Zrotation Yrotation Xrotation
										JOINT left_thumb2
										{
											OFFSET 4.153167 -1.632183 3.055869
											CHANNELS 3 Zrotation Yrotation Xrotation
											JOINT left_thumb3
											{
												OFFSET 1.930838 -1.130749 2.484268
												CHANNELS 3 Zrotation Yrotation Xrotation
												JOINT left_thumb4
												{
													OFFSET 2.373304 -1.263538 1.859181
													CHANNELS 3 Zrotation Yrotation Xrotation
													End Site
													{
														OFFSET 1.862364 -0.895636 1.036186
													}
												}
											}
										}
									}
									JOINT left_index1
									{
										OFFSET 26.962896 1.406068 -0.671098
										CHANNELS 3 Zrotation Yrotation Xrotation
										JOINT left_index2
										{
											OFFSET 9.609658 0.400019 2.428782
											CHANNELS 3 Zrotation Yrotation Xrotation
											JOINT left_index3
											{
												OFFSET 4.327103 0.142592 0.173778
												CHANNELS 3 Zrotation Yrotation Xrotation
												JOINT left_index4
												{
													OFFSET 2.207807 -0.581852 -0.006276
													CHANNELS 3 Zrotation Yrotation Xrotation
													End Site
													{
														OFFSET 1.976887 -0.317216 -0.096828
													}
												}
											}
										}
									}
									JOINT left_middle1
									{
										OFFSET 26.962896 1.406068 -0.671098
										CHANNELS 3 Zrotation Yrotation Xrotation
										JOINT left_middle2
										{
											OFFSET 9.372310 0.575283 0.061440
											CHANNELS 3 Zrotation Yrotation Xrotation
											JOINT left_middle3
											{
												OFFSET 4.546081 0.065035 -0.459353
												CHANNELS 3 Zrotation Yrotation Xrotation
												JOINT left_middle4
												{
													OFFSET 2.264710 -0.991162 -0.003467
													CHANNELS 3 Zrotation Yrotation Xrotation
													End Site
													{
														OFFSET 1.942948 -0.752183 -0.034227
													}
												}
											}
										}
									}
									JOINT left_ring1
									{
										OFFSET 26.962896 1.406068 -0.671098
										CHANNELS 3 Zrotation Yrotation Xrotation
										JOINT left_ring2
										{
											OFFSET 8.921974 0.292351 -1.782636
											CHANNELS 3 Zrotation Yrotation Xrotation
											JOINT left_ring3
											{
												OFFSET 3.837168 -0.075040 -0.911359
												CHANNELS 3 Zrotation Yrotation Xrotation
												JOINT left_ring4
												{
													OFFSET 2.003265 -1.223661 -0.177242
													CHANNELS 3 Zrotation Yrotation Xrotation
													End Site
													{
														OFFSET 1.617845 -1.056094 -0.123004
													}
												}
											}
										}
									}
									JOINT left_little1
									{
										OFFSET 26.962896 1.406068 -0.671098
										CHANNELS 3 Zrotation Yrotation Xrotation
										JOINT left_little2
										{
											OFFSET 7.996423 -0.141709 -3.352163
											CHANNELS 3 Zrotation Yrotation Xrotation
											JOINT left_little3
											{
												OFFSET 2.966905 -0.512326 -1.314375
												CHANNELS 3 Zrotation Yrotation Xrotation
												JOINT left_little4
												{
													OFFSET 1.448264 -0.745369 -0.401906
													CHANNELS 3 Zrotation Yrotation Xrotation
													End Site
													{
														OFFSET 1.235326 -0.840747 -0.135808
													}
												}
											}
										}
									}
								}
							}
						}
					}
				}
				JOINT right_armpit
				{
					OFFSET -0.299576 5.748688 0.621923
					CHANNELS 3 Zrotation Yrotation Xrotation
					JOINT right_shoulder
					{
						OFFSET -8.761585 11.520707 -1.766609
						CHANNELS 3 Zrotation Yrotation Xrotation
						JOINT right_elbow
						{
							OFFSET -11.292308 4.505236 -1.844279
							CHANNELS 3 Zrotation Yrotation Xrotation
							JOINT right_wrist
							{
								OFFSET -26.942314 -1.646741 -3.160184
								CHANNELS 3 Zrotation Yrotation Xrotation
								JOINT right_hand
								{
									OFFSET 0.000000 0.000000 0.000000
									CHANNELS 3 Zrotation Yrotation Xrotation
									JOINT right_thumb1
									{
										OFFSET -27.665901 0.936706 -0.440006
										CHANNELS 3 Zrotation Yrotation Xrotation
										JOINT right_thumb2
										{
											OFFSET -3.762597 -1.862880 3.359071
											CHANNELS 3 Zrotation Yrotation Xrotation
											JOINT right_thumb3
											{
												OFFSET -1.980525 -1.096769 2.691028
												CHANNELS 3 Zrotation Yrotation Xrotation
												JOINT right_thumb4
												{
													OFFSET -2.493186 -1.340018 2.120502
													CHANNELS 3 Zrotation Yrotation Xrotation
													End Site
													{
														OFFSET -2.080849 -1.087557 1.107410
													}
												}
											}
										}
									}
									JOINT right_index1
									{
										OFFSET -27.665901 0.936706 -0.440006
										CHANNELS 3 Zrotation Yrotation Xrotation
										JOINT right_index2
										{
											OFFSET -9.679284 -0.016601 2.570403
											CHANNELS 3 Zrotation Yrotation Xrotation
											JOINT right_index3
											{
												OFFSET -4.537293 -0.059471 0.173565
												CHANNELS 3 Zrotation Yrotation Xrotation
												JOINT right_index4
												{
													OFFSET -2.339291 -0.745366 0.048360
													CHANNELS 3 Zrotation Yrotation Xrotation
													End Site
													{
														OFFSET -2.014867 -0.430677 -0.022855
													}
												}
											}
										}
									}
									JOINT right_middle1
									{
										OFFSET -27.665901 0.936706 -0.440006
										CHANNELS 3 Zrotation Yrotation Xrotation
										JOINT right_middle2
										{
											OFFSET -9.456882 0.015018 -0.036190
											CHANNELS 3 Zrotation Yrotation Xrotation
											JOINT right_middle3
											{
												OFFSET -4.848254 -0.221590 -0.396413
												CHANNELS 3 Zrotation Yrotation Xrotation
												JOINT right_middle4
												{
													OFFSET -2.368631 -1.162251 0.066445
													CHANNELS 3 Zrotation Yrotation Xrotation
													End Site
													{
														OFFSET -1.912223 -0.902724 0.021151
													}
												}
											}
										}
									}
									JOINT right_ring1
									{
										OFFSET -27.665901 0.936706 -0.440006
										CHANNELS 3 Zrotation Yrotation Xrotation
										JOINT right_ring2
										{
											OFFSET -8.938221 -0.394077 -1.891433
											CHANNELS 3 Zrotation Yrotation Xrotation
											JOINT right_ring3
											{
												OFFSET -4.004170 -0.324089 -0.945747
												CHANNELS 3 Zrotation Yrotation Xrotation
												JOINT right_ring4
												{
													OFFSET -2.148023 -1.424283 -0.098780
													CHANNELS 3 Zrotation Yrotation Xrotation
													End Site
													{
														OFFSET -1.606797 -1.117370 -0.084067
													}
												}
											}
										}
									}
									JOINT right_little1
									{
										OFFSET -27.665901 0.936706 -0.440006
										CHANNELS 3 Zrotation Yrotation Xrotation
										JOINT right_little2
										{
											OFFSET -7.991639 -0.944547 -3.585630
											CHANNELS 3 Zrotation Yrotation Xrotation
											JOINT right_little3
											{
												OFFSET -2.982212 -0.735586 -1.248606
												CHANNELS 3 Zrotation Yrotation Xrotation
												JOINT right_little4
												{
													OFFSET -1.553729 -0.919973 -0.376087
													CHANNELS 3 Zrotation Yrotation Xrotation
													End Site
													{
														OFFSET -1.216178 -0.944945 -0.055960
													}
												}
											}
										}
									}
								}
							}
						}
					}
				}
			}
		}
	}
}
MOTION
Frames: 4
Frame Time: 0.033333
29.749625 12.377162 113.058067 0.0 0.0 180.0 -2.665100 6.130171 -172.941888 3.121460 0.430848 -11.621033 -0.016606 0.000010 -0.058064 0.000000 -0.000000 0.000000 -2.665100 6.130171 -172.941888 5.561737 1.109170 -11.112650 -0.007462 0.000157 -0.005502 0.000000 -0.000000 0.000000 -2.665100 6.130171 -172.941888 0.517712 0.356901 -0.420959 1.294795 0.147012 -1.035598 0.960996 0.194671 -0.864208 -5.435239 11.377468 -4.788292 0.960996 0.194671 -0.864208 12.887730 -3.261341 -3.807483 49.345210 1.822806 -1.424433 -102.221405 -33.487245 -68.793000 -54.947385 -14.466173 22.236872 0.000000 0.000000 0.000000 -16.059392 -19.012037 9.722976 -6.030672 -11.635937 -0.175345 -1.420287 -0.000000 0.000000 0.000000 0.000000 0.000000 -2.929538 0.106936 1.169612 1.414172 -0.000000 -0.000000 1.365188 -0.000000 -0.000000 0.000000 0.000000 0.000000 3.180568 2.060880 1.653441 0.735301 -0.000000 -0.000000 0.506554 -0.000000 -0.000000 0.000000 0.000000 0.000000 6.992738 5.738248 4.414648 -0.718717 -0.000000 0.000000 -0.528497 -0.000000 0.000000 0.000000 0.000000 0.000000 14.034378 13.154902 12.893876 1.641895 -0.000000 -0.000000 0.069288 -0.000000 -0.000000 0.960996 0.194671 -0.864208 -8.954296 4.402763 0.841428 -60.520740 1.331325 1.582987 95.686271 -43.788588 -98.177576 52.265827 -8.313668 -10.986306 0.000000 0.000000 0.000000 -2.931244 27.862353 -12.763016 1.037662 12.019863 -4.780796 0.499847 -0.000000 -0.000000 0.000000 0.000000 0.000000 -14.055049 -1.465549 -0.531276 -9.076836 -0.000000 0.000000 -3.579659 -0.000000 0.000000 0.000000 0.000000 0.000000 -16.645729 -4.592063 3.469612 -13.846095 -0.000000 0.000000 -4.840304 -0.000000 0.000000 0.000000 0.000000 0.000000 -18.310936 -9.155751 10.414049 -12.873569 -0.000000 0.000000 -4.477331 -0.000000 0.000000 0.000000 0.000000 0.000000 -16.476650 -12.053221 14.380869 -6.668429 -0.000000 0.000000 -2.435774 -0.000000 0.000000
29.915329 12.531715 113.029363 0.0 0.0 180.0 -2.374238 4.967284 -172.807519 2.821709 0.374055 -11.562179 -0.024402 -0.000027 -0.068443 0.000000 -0.000000 0.000000 -2.374238 4.967284 -172.807519 5.204324 1.096104 -11.626942 -0.009783 0.000217 -0.008285 0.000000 -0.000000 -0.000000 -2.374238 4.967284 -172.807519 0.507382 0.344424 -0.423318 1.282233 0.135694 -1.044391 0.938575 0.184135 -0.876710 -6.866330 12.224432 -5.340221 0.938575 0.184135 -0.876710 11.547433 -3.160977 -3.350624 50.086783 3.314657 0.533138 -103.123809 -36.624250 -68.830928 -52.207388 -19.119594 24.762797 0.000000 0.000000 0.000000 -9.761131 -8.693016 6.576122 -2.694825 -4.278655 -0.000480 -0.170190 -0.000000 0.000000 0.000000 0.000000 0.000000 -6.764999 1.309602 0.362891 -2.102542 -0.000000 0.000000 -0.260391 -0.000000 0.000000 0.000000 0.000000 0.000000 -1.123362 -0.888801 0.002205 -3.050417 -0.000000 0.000000 -0.992306 -0.000000 0.000000 0.000000 0.000000 0.000000 1.652795 2.517454 1.333445 -3.362628 -0.000000 0.000000 -1.561246 -0.000000 0.000000 0.000000 0.000000 0.000000 10.077955 2.992582 5.706777 0.660489 -0.000000 -0.000000 -0.355015 -0.000000 0.000000 0.938575 0.184135 -0.876710 -9.005618 4.169576 0.462181 -60.450123 1.352686 0.565994 91.650222 -36.323751 -92.781138 60.325442 -6.843592 -12.160021 0.000000 0.000000 0.000000 -0.357041 29.722042 -9.058388 2.405323 13.288271 -3.908765 1.342124 -0.000000 -0.000000 0.000000 0.000000 0.000000 -11.618604 -2.206565 0.125363 -8.548017 -0.000000 0.000000 -2.490691 -0.000000 0.000000 0.000000 0.000000 0.000000 -21.205256 -6.997836 5.790696 -16.888399 -0.000000 0.000000 -6.180340 -0.000000 0.000000 0.000000 0.000000 0.000000 -13.661733 -8.639984 6.689819 -4.682691 -0.000000 0.000000 -5.056100 -0.000000 0.000000 0.000000 0.000000 0.000000 -13.208557 -11.229585 11.524780 -6.205602 -0.000000 0.000000 -2.455198 -0.000000 0.000000
29.795388 12.414004 112.599027 0.0 0.0 180.0 -2.449994 5.378974 -172.863136 2.904302 0.419768 -12.479390 -0.015755 0.000083 -0.048484 -0.000000 -0.000000 0.000000 -2.449994 5.378974 -172.863136 5.326733 1.156611 -12.010893 -0.006639 0.000101 -0.001290 -0.000000 -0.000000 0.000000 -2.449994 5.378974 -172.863136 0.508751 0.384429 -0.417303 1.282740 0.175331 -1.031403 0.941242 0.223739 -0.855820 -5.919239 12.071747 -4.407233 0.941242 0.223739 -0.855820 12.448500 -3.256064 -3.225014 48.333085 1.937863 -0.480718 -106.793952 -39.507541 -64.780391 -49.998529 -24.892943 27.818867 0.000000 0.000000 0.000000 -3.238397 -11.707048 -0.741801 1.780390 -9.002583 -5.593599 1.870208 -0.000000 -0.000000 0.000000 0.000000 0.000000 -10.018914 2.147805 -0.075713 -4.383292 -0.000000 0.000000 -1.170770 -0.000000 0.000000 0.000000 0.000000 0.000000 -2.928270 -1.297807 -0.711075 -5.000739 -0.000000 0.000000 -1.925435 -0.000000 0.000000 0.000000 0.000000 0.000000 -1.748044 -2.479631 -0.833563 -4.918694 -0.000000 0.000000 -2.277502 -0.000000 0.000000 0.000000 0.000000 0.000000 11.059856 -3.338789 2.662950 1.712627 -0.000000 -0.000000 -0.060707 -0.000000 0.000000 0.941242 0.223739 -0.855820 -9.368677 4.944407 0.398283 -59.702667 2.336239 -0.759986 93.689012 -34.017275 -96.563907 53.648016 -5.801364 -8.206935 0.000000 0.000000 0.000000 2.965343 22.184986 -5.528442 1.883343 7.620891 -2.177150 1.082060 -0.000000 -0.000000 0.000000 0.000000 0.000000 -12.873833 -0.756930 -0.298957 -7.809668 -0.000000 0.000000 -2.663327 -0.000000 0.000000 0.000000 0.000000 0.000000 -19.568800 -3.574053 1.782812 -15.487875 -0.000000 0.000000 -5.290830 -0.000000 0.000000 0.000000 0.000000 0.000000 -19.736501 -6.951043 8.146386 -12.705854 -0.000000 0.000000 -4.360522 -0.000000 0.000000 0.000000 0.000000 0.000000 -16.194288 -8.999958 12.257166 -7.025307 -0.000000 0.000000 -2.457145 -0.000000 0.000000
29.789070 12.541004 112.859564 0.0 0.0 180.0 -2.454902 5.866061 -173.132003 3.030625 0.428358 -12.019967 -0.016082 0.000022 -0.055823 0.000000 -0.000000 0.000000 -2.454902 5.866061 -173.132003 5.428888 1.093078 -11.184047 -0.007466 0.000139 -0.003784 0.000000 -0.000000 0.000000 -2.454902 5.866061 -173.132003 0.504805 0.359686 -0.419306 1.288879 0.148014 -1.036320 0.950395 0.196077 -0.860538 -5.922157 11.767835 -4.366331 0.950395 0.196077 -0.860538 12.542261 -3.812971 -3.054428 47.860909 2.077326 -0.239252 -107.534538 -39.769521 -63.880464 -48.213539 -25.483085 26.874215 0.000000 0.000000 0.000000 -3.313462 -11.152251 -0.479670 1.885826 -8.576227 -5.503196 1.885988 -0.000000 -0.000000 0.000000 0.000000 0.000000 -9.455650 3.291553 -0.321204 -4.449978 -0.000000 0.000000 -1.228954 -0.000000 0.000000 0.000000 0.000000 0.000000 -3.542523 -1.550358 -0.711623 -5.373833 -0.000000 0.000000 -2.109763 -0.000000 0.000000 0.000000 0.000000 0.000000 -2.269534 -3.506346 -1.201209 -5.292348 -0.000000 0.000000 -2.568524 -0.000000 0.000000 0.000000 0.000000 0.000000 12.003081 -4.120760 2.478088 2.335145 -0.000000 -0.000000 0.086690 -0.000000 -0.000000 0.950395 0.196077 -0.860538 -9.121180 4.820090 0.425056 -60.173948 2.089388 -0.340723 93.082612 -28.112412 -96.503082 51.054594 -2.086023 -3.057141 0.000000 0.000000 0.000000 3.746293 28.268749 -5.308341 2.930215 12.474578 -3.252629 0.535745 -0.000000 -0.000000 0.000000 0.000000 0.000000 -12.944751 0.158429 -0.816541 -6.801933 -0.000000 0.000000 -1.260902 -0.000000 0.000000 0.000000 0.000000 0.000000 -17.675932 -2.543619 1.660337 -11.798976 -0.000000 0.000000 -3.843406 -0.000000 0.000000 0.000000 0.000000 0.000000 -19.088524 -6.760026 7.030612 -12.664489 -0.000000 0.000000 -4.201127 -0.000000 0.000000 0.000000 0.000000 0.000000 -14.812331 -11.065136 12.435403 -6.543984 -0.000000 0.000000 -2.344462 -0.000000 0.000000
